# xmcd
#
# Track frame offsets: 
#        150
#        15594
#        33588
#        48630
#        62965
#        77801
#        97459
#        116595
#        129488
#        143619
#        153360
#        175798
#        196089
#
# Disc length: 2860 seconds
#
# Revision: 0
# Processed by: cddbd v1.5.2PL0 Copyright (c) Steve Scherf et al.
# Submitted via: ExactAudioCopy v0.95a4
#
DISCID=b10b2a0d
DTITLE=Scrapomatic - Alligator Love Cry
DYEAR=2006
DGENRE=Blues
TTITLE0=Louisana Anna
TTITLE1=Horsemeat
TTITLE2=Graveyard Blues
TTITLE3=Long Way Home
TTITLE4=So Much Love
TTITLE5=Lotus
TTITLE6=Monkey Card
TTITLE7=Ain't Got The Smile
TTITLE8=The Other Side
TTITLE9=God Damn Job
TTITLE10=Third Weak Legs
TTITLE11=Raw Head And Bloody Bones
TTITLE12=I Belong To The Band
EXTD=
EXTT0=
EXTT1=
EXTT2=
EXTT3=
EXTT4=
EXTT5=
EXTT6=
EXTT7=
EXTT8=
EXTT9=
EXTT10=
EXTT11=
EXTT12=
PLAYORDER=
